<?xml version="1.0" encoding="UTF-8" standalone="no"?>
<!DOCTYPE svg PUBLIC "-//W3C//DTD SVG 1.1//EN" "http://www.w3.org/Graphics/SVG/1.1/DTD/svg11.dtd">
<svg xmlns="http://www.w3.org/2000/svg" version="1.1" viewBox="0 0 1588 559">
<g stroke-width="2.00" fill="none" stroke-linecap="butt">
<path stroke="#828281" vector-effect="non-scaling-stroke" d="
  M 548.68 284.49
  A 251.76 251.76 0.0 0 0 296.92 32.73
  A 251.76 251.76 0.0 0 0 45.16 284.49
  A 251.76 251.76 0.0 0 0 296.92 536.25
  A 251.76 251.76 0.0 0 0 548.68 284.49"
/>
<path stroke="#828281" vector-effect="non-scaling-stroke" d="
  M 971.54 311.73
  C 978.26 355.00 1007.16 392.75 1052.54 398.66
  C 1116.79 407.02 1159.93 362.33 1164.69 300.98
  C 1166.44 278.45 1164.99 255.22 1157.53 234.25
  C 1144.12 196.56 1113.92 171.29 1072.99 169.50
  Q 1023.25 167.32 994.12 203.93
  C 970.45 233.66 965.90 275.37 971.54 311.73"
/>
<path stroke="#828281" vector-effect="non-scaling-stroke" d="
  M 1501.56 316.64
  A 0.47 0.35 2.5 0 1 1502.00 317.00
  L 1502.00 360.25
  A 0.83 0.76 -14.6 0 1 1501.55 360.95
  C 1483.55 370.23 1455.24 372.41 1436.41 365.12
  C 1399.52 350.85 1393.84 308.56 1395.55 274.18
  C 1397.24 240.13 1414.94 203.50 1453.25 200.11
  C 1469.11 198.71 1486.50 201.51 1500.08 210.44
  A 1.27 0.97 -83.2 0 1 1500.55 211.24
  L 1505.33 241.24
  A 0.69 0.60 -3.9 0 0 1506.00 241.75
  L 1534.50 241.75
  A 0.50 0.50 0.0 0 0 1535.00 241.25
  L 1535.00 194.25
  A 0.87 0.78 20.7 0 0 1534.66 193.60
  C 1511.64 175.68 1482.28 168.39 1452.96 169.35
  Q 1441.99 169.72 1433.13 171.68
  C 1396.35 179.82 1369.81 209.10 1361.01 245.27
  C 1356.15 265.22 1355.46 287.07 1357.74 307.72
  C 1362.31 349.22 1387.81 384.77 1429.00 395.82
  C 1445.69 400.29 1463.19 400.33 1480.81 398.59
  Q 1513.31 395.38 1540.15 376.55
  A 1.52 1.05 -23.5 0 0 1540.80 375.50
  L 1540.81 287.31
  A 0.56 0.31 0.0 0 0 1540.25 287.00
  L 1466.25 287.00
  A 0.75 0.50 -0.0 0 0 1465.50 287.50
  L 1465.50 314.00
  A 0.79 0.53 2.1 0 0 1466.25 314.54
  L 1501.56 316.64"
/>
<path stroke="#828281" vector-effect="non-scaling-stroke" d="
  M 717.56 219.44
  L 788.56 390.98
  A 0.85 0.70 76.3 0 0 789.25 391.50
  L 816.25 391.50
  A 1.09 0.79 -75.5 0 0 817.08 390.82
  L 886.00 218.50
  A 0.72 0.44 -75.0 0 1 886.49 218.03
  C 886.83 218.01 887.09 218.52 887.08 218.84
  Q 886.74 293.25 886.72 367.71
  A 0.65 0.49 86.5 0 1 886.31 368.33
  L 861.51 372.80
  A 0.73 0.61 85.8 0 0 861.00 373.50
  L 861.00 396.00
  A 0.50 0.50 0.0 0 0 861.50 396.50
  L 948.00 396.50
  A 0.50 0.50 0.0 0 0 948.50 396.00
  L 948.50 373.25
  A 0.62 0.46 7.3 0 0 948.00 372.77
  L 924.43 368.33
  A 0.60 0.52 -85.4 0 1 924.00 367.75
  Q 924.56 284.75 924.04 201.75
  A 0.97 0.87 85.1 0 1 924.76 200.80
  L 947.99 196.45
  A 0.62 0.42 -7.7 0 0 948.50 196.00
  L 948.50 173.00
  A 0.50 0.50 0.0 0 0 948.00 172.50
  L 868.25 172.50
  A 0.90 0.60 -75.2 0 0 867.59 173.08
  L 804.41 333.68
  Q 803.63 335.67 802.82 333.69
  L 737.68 173.03
  A 0.84 0.68 77.0 0 0 737.00 172.50
  L 658.25 172.50
  A 0.65 0.50 0.0 0 0 657.60 173.00
  L 657.65 195.94
  A 0.75 0.46 7.8 0 0 658.26 196.44
  L 681.49 200.81
  A 0.71 0.62 -85.7 0 1 682.00 201.50
  L 682.00 367.50
  A 1.01 0.90 -6.2 0 1 681.18 368.40
  L 658.25 372.76
  A 0.76 0.75 84.4 0 0 657.65 373.50
  L 657.72 396.00
  A 0.53 0.50 0.0 0 0 658.25 396.50
  L 744.50 396.50
  A 0.54 0.50 -0.0 0 0 745.04 396.00
  L 745.23 373.25
  A 0.59 0.43 7.2 0 0 744.74 372.79
  L 718.93 368.35
  A 0.64 0.51 -86.4 0 1 718.50 367.73
  C 718.59 318.32 717.58 268.99 716.59 219.57
  A 0.59 0.33 84.7 0 1 716.82 219.06
  L 717.01 219.00
  A 0.62 0.36 68.9 0 1 717.56 219.44"
/>
<path stroke="#828281" vector-effect="non-scaling-stroke" d="
  M 1302.13 202.95
  Q 1291.47 216.37 1287.86 221.34
  C 1249.68 273.89 1232.60 331.79 1228.12 395.96
  A 0.50 0.39 -87.4 0 0 1228.50 396.50
  L 1266.00 396.50
  A 0.66 0.66 2.9 0 0 1266.66 395.91
  C 1269.31 369.25 1272.59 343.18 1278.63 317.03
  C 1288.81 272.97 1310.84 237.23 1339.64 203.07
  A 1.44 0.89 -34.7 0 0 1340.00 202.25
  L 1340.00 173.00
  A 0.50 0.50 0.0 0 0 1339.50 172.50
  L 1185.25 172.50
  A 0.50 0.50 0.0 0 0 1184.75 173.00
  L 1184.75 225.50
  A 0.56 0.53 -0.0 0 0 1185.31 226.03
  L 1215.00 226.06
  A 0.67 0.62 2.3 0 0 1215.66 225.49
  L 1217.57 203.01
  A 0.55 0.42 -87.2 0 1 1218.00 202.50
  L 1302.00 202.50
  Q 1302.49 202.50 1302.13 202.95"
/>
<path stroke="#828281" vector-effect="non-scaling-stroke" d="
  M 527.89 284.49
  A 230.97 230.97 0.0 0 0 296.92 53.52
  A 230.97 230.97 0.0 0 0 65.95 284.49
  A 230.97 230.97 0.0 0 0 296.92 515.46
  A 230.97 230.97 0.0 0 0 527.89 284.49"
/>
<path stroke="#828281" vector-effect="non-scaling-stroke" d="
  M 315.57 333.36
  L 396.82 317.63
  A 1.41 0.94 4.1 0 0 397.64 317.16
  L 414.03 293.54
  Q 414.50 292.87 413.68 293.17
  L 314.25 329.25
  Q 311.89 330.10 314.17 328.90
  L 425.91 269.89
  A 1.52 0.74 -17.8 0 0 426.65 269.18
  L 438.61 233.83
  Q 438.86 233.11 438.26 233.54
  L 295.65 335.86
  Q 294.64 336.59 295.35 335.57
  L 325.70 292.19
  A 0.94 0.73 -47.2 0 0 325.78 291.22
  L 311.64 271.10
  Q 311.24 270.54 311.02 271.26
  L 296.09 319.33
  Q 295.36 321.67 295.41 319.18
  L 296.63 254.99
  A 1.19 0.69 -78.5 0 0 296.35 254.15
  L 262.90 224.85
  Q 262.32 224.34 262.56 225.19
  L 289.91 318.82
  A 0.47 0.18 69.4 0 1 289.91 319.18
  C 289.78 319.35 289.59 319.22 289.50 319.06
  Q 258.93 260.80 228.41 202.50
  A 1.65 1.50 0.8 0 0 227.68 201.82
  L 155.73 169.03
  Q 154.93 168.67 155.45 169.30
  L 294.26 335.99
  A 2.06 1.85 -12.5 0 0 295.42 336.64
  L 353.02 346.64
  A 1.85 1.48 32.9 0 0 354.02 346.54
  L 378.25 335.99
  Q 379.08 335.62 378.00 335.60
  L 315.75 334.10
  Q 312.17 334.01 315.57 333.36"
/>
<path stroke="#828281" vector-effect="non-scaling-stroke" d="
  M 369.08 383.59
  L 409.51 390.69
  Q 410.32 390.83 409.58 390.16
  L 390.36 372.89
  Q 389.51 372.12 390.76 372.06
  L 432.00 370.20
  Q 433.24 370.15 431.94 369.86
  Q 368.87 356.00 305.79 342.27
  C 290.60 338.96 275.01 338.07 259.62 336.84
  C 255.36 336.50 244.75 342.58 240.43 344.54
  A 0.76 0.60 -19.2 0 0 239.97 345.26
  L 242.25 356.00
  Q 242.48 357.08 242.80 356.01
  L 244.27 351.01
  A 0.77 0.63 8.2 0 1 245.02 350.56
  Q 255.11 351.04 265.22 351.42
  Q 268.45 351.54 271.48 352.65
  Q 302.07 363.84 332.65 375.06
  Q 336.69 376.55 340.28 378.92
  Q 356.12 389.43 372.07 399.89
  Q 372.60 400.24 372.47 399.76
  L 368.50 384.00
  A 0.49 0.36 1.2 0 1 369.08 383.59"
/>
<path stroke="#828281" vector-effect="non-scaling-stroke" d="
  M 1010.84 313.98
  C 1015.14 338.47 1028.97 363.08 1055.69 367.83
  C 1069.88 370.35 1085.18 368.68 1097.31 360.84
  C 1126.94 341.68 1128.56 295.64 1125.56 264.70
  C 1121.92 227.09 1100.16 193.92 1057.14 201.07
  C 1007.20 209.38 1004.23 276.37 1010.84 313.98"
/>
</g>
<path fill="#fafafa" d="
  M 0.00 0.00
  L 1588.00 0.00
  L 1588.00 559.00
  L 0.00 559.00
  L 0.00 0.00
  Z
  M 548.68 284.49
  A 251.76 251.76 0.0 0 0 296.92 32.73
  A 251.76 251.76 0.0 0 0 45.16 284.49
  A 251.76 251.76 0.0 0 0 296.92 536.25
  A 251.76 251.76 0.0 0 0 548.68 284.49
  Z
  M 971.54 311.73
  C 978.26 355.00 1007.16 392.75 1052.54 398.66
  C 1116.79 407.02 1159.93 362.33 1164.69 300.98
  C 1166.44 278.45 1164.99 255.22 1157.53 234.25
  C 1144.12 196.56 1113.92 171.29 1072.99 169.50
  Q 1023.25 167.32 994.12 203.93
  C 970.45 233.66 965.90 275.37 971.54 311.73
  Z
  M 1501.56 316.64
  A 0.47 0.35 2.5 0 1 1502.00 317.00
  L 1502.00 360.25
  A 0.83 0.76 -14.6 0 1 1501.55 360.95
  C 1483.55 370.23 1455.24 372.41 1436.41 365.12
  C 1399.52 350.85 1393.84 308.56 1395.55 274.18
  C 1397.24 240.13 1414.94 203.50 1453.25 200.11
  C 1469.11 198.71 1486.50 201.51 1500.08 210.44
  A 1.27 0.97 -83.2 0 1 1500.55 211.24
  L 1505.33 241.24
  A 0.69 0.60 -3.9 0 0 1506.00 241.75
  L 1534.50 241.75
  A 0.50 0.50 0.0 0 0 1535.00 241.25
  L 1535.00 194.25
  A 0.87 0.78 20.7 0 0 1534.66 193.60
  C 1511.64 175.68 1482.28 168.39 1452.96 169.35
  Q 1441.99 169.72 1433.13 171.68
  C 1396.35 179.82 1369.81 209.10 1361.01 245.27
  C 1356.15 265.22 1355.46 287.07 1357.74 307.72
  C 1362.31 349.22 1387.81 384.77 1429.00 395.82
  C 1445.69 400.29 1463.19 400.33 1480.81 398.59
  Q 1513.31 395.38 1540.15 376.55
  A 1.52 1.05 -23.5 0 0 1540.80 375.50
  L 1540.81 287.31
  A 0.56 0.31 0.0 0 0 1540.25 287.00
  L 1466.25 287.00
  A 0.75 0.50 -0.0 0 0 1465.50 287.50
  L 1465.50 314.00
  A 0.79 0.53 2.1 0 0 1466.25 314.54
  L 1501.56 316.64
  Z
  M 717.56 219.44
  L 788.56 390.98
  A 0.85 0.70 76.3 0 0 789.25 391.50
  L 816.25 391.50
  A 1.09 0.79 -75.5 0 0 817.08 390.82
  L 886.00 218.50
  A 0.72 0.44 -75.0 0 1 886.49 218.03
  C 886.83 218.01 887.09 218.52 887.08 218.84
  Q 886.74 293.25 886.72 367.71
  A 0.65 0.49 86.5 0 1 886.31 368.33
  L 861.51 372.80
  A 0.73 0.61 85.8 0 0 861.00 373.50
  L 861.00 396.00
  A 0.50 0.50 0.0 0 0 861.50 396.50
  L 948.00 396.50
  A 0.50 0.50 0.0 0 0 948.50 396.00
  L 948.50 373.25
  A 0.62 0.46 7.3 0 0 948.00 372.77
  L 924.43 368.33
  A 0.60 0.52 -85.4 0 1 924.00 367.75
  Q 924.56 284.75 924.04 201.75
  A 0.97 0.87 85.1 0 1 924.76 200.80
  L 947.99 196.45
  A 0.62 0.42 -7.7 0 0 948.50 196.00
  L 948.50 173.00
  A 0.50 0.50 0.0 0 0 948.00 172.50
  L 868.25 172.50
  A 0.90 0.60 -75.2 0 0 867.59 173.08
  L 804.41 333.68
  Q 803.63 335.67 802.82 333.69
  L 737.68 173.03
  A 0.84 0.68 77.0 0 0 737.00 172.50
  L 658.25 172.50
  A 0.65 0.50 0.0 0 0 657.60 173.00
  L 657.65 195.94
  A 0.75 0.46 7.8 0 0 658.26 196.44
  L 681.49 200.81
  A 0.71 0.62 -85.7 0 1 682.00 201.50
  L 682.00 367.50
  A 1.01 0.90 -6.2 0 1 681.18 368.40
  L 658.25 372.76
  A 0.76 0.75 84.4 0 0 657.65 373.50
  L 657.72 396.00
  A 0.53 0.50 0.0 0 0 658.25 396.50
  L 744.50 396.50
  A 0.54 0.50 -0.0 0 0 745.04 396.00
  L 745.23 373.25
  A 0.59 0.43 7.2 0 0 744.74 372.79
  L 718.93 368.35
  A 0.64 0.51 -86.4 0 1 718.50 367.73
  C 718.59 318.32 717.58 268.99 716.59 219.57
  A 0.59 0.33 84.7 0 1 716.82 219.06
  L 717.01 219.00
  A 0.62 0.36 68.9 0 1 717.56 219.44
  Z
  M 1302.13 202.95
  Q 1291.47 216.37 1287.86 221.34
  C 1249.68 273.89 1232.60 331.79 1228.12 395.96
  A 0.50 0.39 -87.4 0 0 1228.50 396.50
  L 1266.00 396.50
  A 0.66 0.66 2.9 0 0 1266.66 395.91
  C 1269.31 369.25 1272.59 343.18 1278.63 317.03
  C 1288.81 272.97 1310.84 237.23 1339.64 203.07
  A 1.44 0.89 -34.7 0 0 1340.00 202.25
  L 1340.00 173.00
  A 0.50 0.50 0.0 0 0 1339.50 172.50
  L 1185.25 172.50
  A 0.50 0.50 0.0 0 0 1184.75 173.00
  L 1184.75 225.50
  A 0.56 0.53 -0.0 0 0 1185.31 226.03
  L 1215.00 226.06
  A 0.67 0.62 2.3 0 0 1215.66 225.49
  L 1217.57 203.01
  A 0.55 0.42 -87.2 0 1 1218.00 202.50
  L 1302.00 202.50
  Q 1302.49 202.50 1302.13 202.95
  Z"
/>
<path fill="#0a0907" d="
  M 548.68 284.49
  A 251.76 251.76 0.0 0 1 296.92 536.25
  A 251.76 251.76 0.0 0 1 45.16 284.49
  A 251.76 251.76 0.0 0 1 296.92 32.73
  A 251.76 251.76 0.0 0 1 548.68 284.49
  Z
  M 527.89 284.49
  A 230.97 230.97 0.0 0 0 296.92 53.52
  A 230.97 230.97 0.0 0 0 65.95 284.49
  A 230.97 230.97 0.0 0 0 296.92 515.46
  A 230.97 230.97 0.0 0 0 527.89 284.49
  Z"
/>
<path fill="#fafafa" d="
  M 527.89 284.49
  A 230.97 230.97 0.0 0 1 296.92 515.46
  A 230.97 230.97 0.0 0 1 65.95 284.49
  A 230.97 230.97 0.0 0 1 296.92 53.52
  A 230.97 230.97 0.0 0 1 527.89 284.49
  Z
  M 315.57 333.36
  L 396.82 317.63
  A 1.41 0.94 4.1 0 0 397.64 317.16
  L 414.03 293.54
  Q 414.50 292.87 413.68 293.17
  L 314.25 329.25
  Q 311.89 330.10 314.17 328.90
  L 425.91 269.89
  A 1.52 0.74 -17.8 0 0 426.65 269.18
  L 438.61 233.83
  Q 438.86 233.11 438.26 233.54
  L 295.65 335.86
  Q 294.64 336.59 295.35 335.57
  L 325.70 292.19
  A 0.94 0.73 -47.2 0 0 325.78 291.22
  L 311.64 271.10
  Q 311.24 270.54 311.02 271.26
  L 296.09 319.33
  Q 295.36 321.67 295.41 319.18
  L 296.63 254.99
  A 1.19 0.69 -78.5 0 0 296.35 254.15
  L 262.90 224.85
  Q 262.32 224.34 262.56 225.19
  L 289.91 318.82
  A 0.47 0.18 69.4 0 1 289.91 319.18
  C 289.78 319.35 289.59 319.22 289.50 319.06
  Q 258.93 260.80 228.41 202.50
  A 1.65 1.50 0.8 0 0 227.68 201.82
  L 155.73 169.03
  Q 154.93 168.67 155.45 169.30
  L 294.26 335.99
  A 2.06 1.85 -12.5 0 0 295.42 336.64
  L 353.02 346.64
  A 1.85 1.48 32.9 0 0 354.02 346.54
  L 378.25 335.99
  Q 379.08 335.62 378.00 335.60
  L 315.75 334.10
  Q 312.17 334.01 315.57 333.36
  Z
  M 369.08 383.59
  L 409.51 390.69
  Q 410.32 390.83 409.58 390.16
  L 390.36 372.89
  Q 389.51 372.12 390.76 372.06
  L 432.00 370.20
  Q 433.24 370.15 431.94 369.86
  Q 368.87 356.00 305.79 342.27
  C 290.60 338.96 275.01 338.07 259.62 336.84
  C 255.36 336.50 244.75 342.58 240.43 344.54
  A 0.76 0.60 -19.2 0 0 239.97 345.26
  L 242.25 356.00
  Q 242.48 357.08 242.80 356.01
  L 244.27 351.01
  A 0.77 0.63 8.2 0 1 245.02 350.56
  Q 255.11 351.04 265.22 351.42
  Q 268.45 351.54 271.48 352.65
  Q 302.07 363.84 332.65 375.06
  Q 336.69 376.55 340.28 378.92
  Q 356.12 389.43 372.07 399.89
  Q 372.60 400.24 372.47 399.76
  L 368.50 384.00
  A 0.49 0.36 1.2 0 1 369.08 383.59
  Z"
/>
<path fill="#0a0907" d="
  M 315.57 333.36
  Q 312.17 334.01 315.75 334.10
  L 378.00 335.60
  Q 379.08 335.62 378.25 335.99
  L 354.02 346.54
  A 1.85 1.48 32.9 0 1 353.02 346.64
  L 295.42 336.64
  A 2.06 1.85 -12.5 0 1 294.26 335.99
  L 155.45 169.30
  Q 154.93 168.67 155.73 169.03
  L 227.68 201.82
  A 1.65 1.50 0.8 0 1 228.41 202.50
  Q 258.93 260.80 289.50 319.06
  C 289.59 319.22 289.78 319.35 289.91 319.18
  A 0.47 0.18 69.4 0 0 289.91 318.82
  L 262.56 225.19
  Q 262.32 224.34 262.90 224.85
  L 296.35 254.15
  A 1.19 0.69 -78.5 0 1 296.63 254.99
  L 295.41 319.18
  Q 295.36 321.67 296.09 319.33
  L 311.02 271.26
  Q 311.24 270.54 311.64 271.10
  L 325.78 291.22
  A 0.94 0.73 -47.2 0 1 325.70 292.19
  L 295.35 335.57
  Q 294.64 336.59 295.65 335.86
  L 438.26 233.54
  Q 438.86 233.11 438.61 233.83
  L 426.65 269.18
  A 1.52 0.74 -17.8 0 1 425.91 269.89
  L 314.17 328.90
  Q 311.89 330.10 314.25 329.25
  L 413.68 293.17
  Q 414.50 292.87 414.03 293.54
  L 397.64 317.16
  A 1.41 0.94 4.1 0 1 396.82 317.63
  L 315.57 333.36
  Z"
/>
<path fill="#0a0907" d="
  M 1052.54 398.66
  C 1007.16 392.75 978.26 355.00 971.54 311.73
  C 965.90 275.37 970.45 233.66 994.12 203.93
  Q 1023.25 167.32 1072.99 169.50
  C 1113.92 171.29 1144.12 196.56 1157.53 234.25
  C 1164.99 255.22 1166.44 278.45 1164.69 300.98
  C 1159.93 362.33 1116.79 407.02 1052.54 398.66
  Z
  M 1010.84 313.98
  C 1015.14 338.47 1028.97 363.08 1055.69 367.83
  C 1069.88 370.35 1085.18 368.68 1097.31 360.84
  C 1126.94 341.68 1128.56 295.64 1125.56 264.70
  C 1121.92 227.09 1100.16 193.92 1057.14 201.07
  C 1007.20 209.38 1004.23 276.37 1010.84 313.98
  Z"
/>
<path fill="#0a0907" d="
  M 1501.56 316.64
  L 1466.25 314.54
  A 0.79 0.53 2.1 0 1 1465.50 314.00
  L 1465.50 287.50
  A 0.75 0.50 -0.0 0 1 1466.25 287.00
  L 1540.25 287.00
  A 0.56 0.31 -0.0 0 1 1540.81 287.31
  L 1540.80 375.50
  A 1.52 1.05 -23.5 0 1 1540.15 376.55
  Q 1513.31 395.38 1480.81 398.59
  C 1463.19 400.33 1445.69 400.29 1429.00 395.82
  C 1387.81 384.77 1362.31 349.22 1357.74 307.72
  C 1355.46 287.07 1356.15 265.22 1361.01 245.27
  C 1369.81 209.10 1396.35 179.82 1433.13 171.68
  Q 1441.99 169.72 1452.96 169.35
  C 1482.28 168.39 1511.64 175.68 1534.66 193.60
  A 0.87 0.78 20.7 0 1 1535.00 194.25
  L 1535.00 241.25
  A 0.50 0.50 0.0 0 1 1534.50 241.75
  L 1506.00 241.75
  A 0.69 0.60 -3.9 0 1 1505.33 241.24
  L 1500.55 211.24
  A 1.27 0.97 -83.2 0 0 1500.08 210.44
  C 1486.50 201.51 1469.11 198.71 1453.25 200.11
  C 1414.94 203.50 1397.24 240.13 1395.55 274.18
  C 1393.84 308.56 1399.52 350.85 1436.41 365.12
  C 1455.24 372.41 1483.55 370.23 1501.55 360.95
  A 0.83 0.76 -14.6 0 0 1502.00 360.25
  L 1502.00 317.00
  A 0.47 0.35 2.5 0 0 1501.56 316.64
  Z"
/>
<path fill="#0a0907" d="
  M 717.01 219.00
  L 716.82 219.06
  A 0.59 0.33 84.7 0 0 716.59 219.57
  C 717.58 268.99 718.59 318.32 718.50 367.73
  A 0.64 0.51 -86.4 0 0 718.93 368.35
  L 744.74 372.79
  A 0.59 0.43 7.2 0 1 745.23 373.25
  L 745.04 396.00
  A 0.54 0.50 0.0 0 1 744.50 396.50
  L 658.25 396.50
  A 0.53 0.50 -0.0 0 1 657.72 396.00
  L 657.65 373.50
  A 0.76 0.75 84.4 0 1 658.25 372.76
  L 681.18 368.40
  A 1.01 0.90 -6.2 0 0 682.00 367.50
  L 682.00 201.50
  A 0.71 0.62 -85.7 0 0 681.49 200.81
  L 658.26 196.44
  A 0.75 0.46 7.8 0 1 657.65 195.94
  L 657.60 173.00
  A 0.65 0.50 0.0 0 1 658.25 172.50
  L 737.00 172.50
  A 0.84 0.68 77.0 0 1 737.68 173.03
  L 802.82 333.69
  Q 803.63 335.67 804.41 333.68
  L 867.59 173.08
  A 0.90 0.60 -75.2 0 1 868.25 172.50
  L 948.00 172.50
  A 0.50 0.50 0.0 0 1 948.50 173.00
  L 948.50 196.00
  A 0.62 0.42 -7.7 0 1 947.99 196.45
  L 924.76 200.80
  A 0.97 0.87 85.1 0 0 924.04 201.75
  Q 924.56 284.75 924.00 367.75
  A 0.60 0.52 -85.4 0 0 924.43 368.33
  L 948.00 372.77
  A 0.62 0.46 7.3 0 1 948.50 373.25
  L 948.50 396.00
  A 0.50 0.50 0.0 0 1 948.00 396.50
  L 861.50 396.50
  A 0.50 0.50 0.0 0 1 861.00 396.00
  L 861.00 373.50
  A 0.73 0.61 85.8 0 1 861.51 372.80
  L 886.31 368.33
  A 0.65 0.49 86.5 0 0 886.72 367.71
  Q 886.74 293.25 887.08 218.84
  C 887.09 218.52 886.83 218.01 886.49 218.03
  A 0.72 0.44 -75.0 0 0 886.00 218.50
  L 817.08 390.82
  A 1.09 0.79 -75.5 0 1 816.25 391.50
  L 789.25 391.50
  A 0.85 0.70 76.3 0 1 788.56 390.98
  L 717.56 219.44
  A 0.62 0.36 68.9 0 0 717.01 219.00
  Z"
/>
<path fill="#0a0907" d="
  M 1302.00 202.50
  L 1218.00 202.50
  A 0.55 0.42 -87.2 0 0 1217.57 203.01
  L 1215.66 225.49
  A 0.67 0.62 2.3 0 1 1215.00 226.06
  L 1185.31 226.03
  A 0.56 0.53 0.0 0 1 1184.75 225.50
  L 1184.75 173.00
  A 0.50 0.50 0.0 0 1 1185.25 172.50
  L 1339.50 172.50
  A 0.50 0.50 0.0 0 1 1340.00 173.00
  L 1340.00 202.25
  A 1.44 0.89 -34.7 0 1 1339.64 203.07
  C 1310.84 237.23 1288.81 272.97 1278.63 317.03
  C 1272.59 343.18 1269.31 369.25 1266.66 395.91
  A 0.66 0.66 2.9 0 1 1266.00 396.50
  L 1228.50 396.50
  A 0.50 0.39 -87.4 0 1 1228.12 395.96
  C 1232.60 331.79 1249.68 273.89 1287.86 221.34
  Q 1291.47 216.37 1302.13 202.95
  Q 1302.49 202.50 1302.00 202.50
  Z"
/>
<path fill="#fafafa" d="
  M 1055.69 367.83
  C 1028.97 363.08 1015.14 338.47 1010.84 313.98
  C 1004.23 276.37 1007.20 209.38 1057.14 201.07
  C 1100.16 193.92 1121.92 227.09 1125.56 264.70
  C 1128.56 295.64 1126.94 341.68 1097.31 360.84
  C 1085.18 368.68 1069.88 370.35 1055.69 367.83
  Z"
/>
<path fill="#0a0907" d="
  M 368.50 384.00
  L 372.47 399.76
  Q 372.60 400.24 372.07 399.89
  Q 356.12 389.43 340.28 378.92
  Q 336.69 376.55 332.65 375.06
  Q 302.07 363.84 271.48 352.65
  Q 268.45 351.54 265.22 351.42
  Q 255.11 351.04 245.02 350.56
  A 0.77 0.63 8.2 0 0 244.27 351.01
  L 242.80 356.01
  Q 242.48 357.08 242.25 356.00
  L 239.97 345.26
  A 0.76 0.60 -19.2 0 1 240.43 344.54
  C 244.75 342.58 255.36 336.50 259.62 336.84
  C 275.01 338.07 290.60 338.96 305.79 342.27
  Q 368.87 356.00 431.94 369.86
  Q 433.24 370.15 432.00 370.20
  L 390.76 372.06
  Q 389.51 372.12 390.36 372.89
  L 409.58 390.16
  Q 410.32 390.83 409.51 390.69
  L 369.08 383.59
  A 0.49 0.36 1.2 0 0 368.50 384.00
  Z"
/>
</svg>
